M48
; DRILL file {KiCad 9.0.7} date 2026-09-09T01:49:26+0200
; FORMAT={-:-/ absolute / metric / decimal}
; #@! TF.CreationDate,2026-09-09T01:49:26+02:00
; #@! TF.GenerationSoftware,Kicad,Pcbnew,9.0.7
; #@! TF.FileFunction,MixedPlating,1,2
FMAT,2
METRIC
; #@! TA.AperFunction,Plated,PTH,ViaDrill
T1C0.300
; #@! TA.AperFunction,Plated,PTH,ComponentDrill
T2C0.800
; #@! TA.AperFunction,Plated,PTH,ComponentDrill
T3C1.000
; #@! TA.AperFunction,NonPlated,NPTH,ComponentDrill
T4C2.000
%
G90
G05
T1
X76.5Y-71.5
X77.96Y-60.54
X78.0Y-55.5
X78.0Y-58.0
X78.0Y-62.5
X86.5Y-82.5
X90.0Y-51.0
X90.0Y-52.5
X90.0Y-54.0
X90.0Y-55.5
X105.5Y-72.5
T2
X81.92Y-90.5
X81.92Y-96.5
X92.08Y-90.5
X92.08Y-96.5
X99.92Y-91.0
X99.92Y-97.0
X110.08Y-91.0
X110.08Y-97.0
T3
X71.92Y-55.46
X71.92Y-58.0
X71.92Y-60.54
X71.92Y-63.08
X73.88Y-45.5
X76.42Y-45.5
X78.96Y-45.5
X81.5Y-45.5
X84.04Y-45.5
X86.58Y-45.5
X86.92Y-107.0
X89.46Y-107.0
X89.84Y-64.76
X89.84Y-80.0
X91.34Y-45.5
X92.0Y-107.0
X92.38Y-64.76
X92.38Y-80.0
X93.88Y-45.5
X94.54Y-107.0
X94.92Y-64.76
X94.92Y-80.0
X96.42Y-45.5
X97.08Y-107.0
X97.46Y-64.76
X97.46Y-80.0
X98.96Y-45.5
X100.0Y-64.76
X100.0Y-80.0
X101.5Y-45.5
X102.54Y-64.76
X102.54Y-80.0
X105.08Y-64.76
X105.08Y-80.0
X107.0Y-45.5
X109.54Y-45.5
X112.08Y-45.5
T4
X68.92Y-41.5
X68.92Y-107.5
X113.92Y-41.5
X113.92Y-107.5
M30
